<svg width="21" height="14" viewBox="0 0 21 14" fill="none" xmlns="http://www.w3.org/2000/svg">
<g clip-path="url(#clip0_14147_11852)">
<path d="M20.6357 0.5H0.635742V13.5H20.6357V0.5Z" fill="#F0F0F0"/>
<path d="M20.6357 2.125H0.635742V3.74984H20.6357V2.125Z" fill="#D80027"/>
<path d="M20.6357 5.375H0.635742V6.99984H20.6357V5.375Z" fill="#D80027"/>
<path d="M20.6357 8.625H0.635742V10.2498H20.6357V8.625Z" fill="#D80027"/>
<path d="M20.6357 11.875H0.635742V13.4998H20.6357V11.875Z" fill="#D80027"/>
<path d="M10.6357 0.5H0.635742V7.50001H10.6357V0.5Z" fill="#2E52B2"/>
<path d="M4.53502 3.36914L4.37396 3.85222H3.85303L4.27455 4.15062L4.1135 4.63366L4.53502 4.33526L4.95627 4.63366L4.79525 4.15062L5.21678 3.85222H4.6958L4.53502 3.36914Z" fill="#F0F0F0"/>
<path d="M4.6958 5.59437L4.53502 5.11133L4.37396 5.59437H3.85303L4.27455 5.8928L4.1135 6.37584L4.53502 6.07741L4.95627 6.37584L4.79525 5.8928L5.21678 5.59437H4.6958Z" fill="#F0F0F0"/>
<path d="M2.49418 5.59437L2.33336 5.11133L2.1723 5.59437H1.65137L2.07289 5.8928L1.91184 6.37584L2.33336 6.07741L2.75465 6.37584L2.59363 5.8928L3.01508 5.59437H2.49418Z" fill="#F0F0F0"/>
<path d="M2.33336 3.36914L2.1723 3.85222H1.65137L2.07289 4.15062L1.91184 4.63366L2.33336 4.33526L2.75465 4.63366L2.59363 4.15062L3.01508 3.85222H2.49418L2.33336 3.36914Z" fill="#F0F0F0"/>
<path d="M4.53502 1.625L4.37396 2.10812H3.85303L4.27455 2.40655L4.1135 2.88959L4.53502 2.59115L4.95627 2.88959L4.79525 2.40655L5.21678 2.10812H4.6958L4.53502 1.625Z" fill="#F0F0F0"/>
<path d="M2.33336 1.625L2.1723 2.10812H1.65137L2.07289 2.40655L1.91184 2.88959L2.33336 2.59115L2.75465 2.88959L2.59363 2.40655L3.01508 2.10812H2.49418L2.33336 1.625Z" fill="#F0F0F0"/>
<path d="M6.73664 3.36914L6.57562 3.85222H6.05469L6.47617 4.15062L6.31519 4.63366L6.73664 4.33526L7.15797 4.63366L6.99691 4.15062L7.41844 3.85222H6.8975L6.73664 3.36914Z" fill="#F0F0F0"/>
<path d="M6.8975 5.59437L6.73664 5.11133L6.57562 5.59437H6.05469L6.47617 5.8928L6.31519 6.37584L6.73664 6.07741L7.15797 6.37584L6.99691 5.8928L7.41844 5.59437H6.8975Z" fill="#F0F0F0"/>
<path d="M9.09912 5.59437L8.9383 5.11133L8.77725 5.59437H8.25635L8.67779 5.8928L8.51678 6.37584L8.9383 6.07741L9.35959 6.37584L9.19853 5.8928L9.62006 5.59437H9.09912Z" fill="#F0F0F0"/>
<path d="M8.9383 3.36914L8.77725 3.85222H8.25635L8.67779 4.15062L8.51678 4.63366L8.9383 4.33526L9.35959 4.63366L9.19853 4.15062L9.62006 3.85222H9.09912L8.9383 3.36914Z" fill="#F0F0F0"/>
<path d="M6.73664 1.625L6.57562 2.10812H6.05469L6.47617 2.40655L6.31519 2.88959L6.73664 2.59115L7.15797 2.88959L6.99691 2.40655L7.41844 2.10812H6.8975L6.73664 1.625Z" fill="#F0F0F0"/>
<path d="M8.9383 1.625L8.77725 2.10812H8.25635L8.67779 2.40655L8.51678 2.88959L8.9383 2.59115L9.35959 2.88959L9.19853 2.40655L9.62006 2.10812H9.09912L8.9383 1.625Z" fill="#F0F0F0"/>
</g>
<defs>
<clipPath id="clip0_14147_11852">
<rect width="20" height="13" fill="white" transform="translate(0.635742 0.5)"/>
</clipPath>
</defs>
</svg>
