<svg width="30" height="30" viewBox="0 0 30 30" fill="none" xmlns="http://www.w3.org/2000/svg">
<path d="M15 28.4375C7.57867 28.4375 1.5625 22.4213 1.5625 15C1.5625 7.57867 7.57867 1.5625 15 1.5625C22.4213 1.5625 28.4375 7.57867 28.4375 15C28.4375 22.4213 22.4213 28.4375 15 28.4375Z" fill="white"/>
<path fill-rule="evenodd" clip-rule="evenodd" d="M20.9214 12.0947C21.3879 11.5858 21.3536 10.7951 20.8447 10.3286C20.3358 9.86207 19.545 9.89645 19.0786 10.4054L13.0857 16.943L10.8839 14.7411C10.3957 14.253 9.60427 14.253 9.11612 14.7411C8.62796 15.2293 8.62796 16.0207 9.11612 16.5089L12.2411 19.6339C12.4822 19.875 12.8113 20.0071 13.1522 19.9997C13.493 19.9923 13.8161 19.846 14.0464 19.5947L20.9214 12.0947Z" fill="#0040C1"/>
</svg>
