<svg width="24" height="24" viewBox="0 0 24 24" fill="none" xmlns="http://www.w3.org/2000/svg">
<path fill-rule="evenodd" clip-rule="evenodd" d="M4.03041 0.607608C3.22027 -0.202536 1.90676 -0.202536 1.09662 0.607608C0.286478 1.41775 0.286478 2.73125 1.09662 3.5414L9.55522 12L1.09662 20.4586C0.286478 21.2687 0.286478 22.5822 1.09662 23.3924C1.90676 24.2025 3.22027 24.2025 4.03041 23.3924L12.489 14.9338L20.4586 22.9034C21.2688 23.7136 22.5823 23.7136 23.3924 22.9034C24.2026 22.0933 24.2026 20.7798 23.3924 19.9696L15.4228 12L23.3924 4.03036C24.2026 3.22022 24.2026 1.90672 23.3924 1.09657C22.5823 0.286428 21.2688 0.286429 20.4586 1.09657L12.489 9.0662L4.03041 0.607608Z" fill="white"/>
</svg>
