<svg width="69" height="48" viewBox="0 0 69 48" fill="none" xmlns="http://www.w3.org/2000/svg">
    <rect x="0.774194" y="0.774194" width="66.5807" height="46.4516" rx="5.41935" fill="white"/>
    <rect x="0.774194" y="0.774194" width="66.5807" height="46.4516" rx="5.41935" stroke="#F2F4F7" stroke-width="1.54839"/>
    <path fill-rule="evenodd" clip-rule="evenodd" d="M43.2364 36.8586C50.7404 36.8586 56.8235 30.8592 56.8235 23.4586C56.8235 16.058 50.7404 10.0586 43.2364 10.0586C39.8734 10.0586 36.7957 11.2636 34.4231 13.2597C32.0505 11.2637 28.9729 10.0587 25.6099 10.0587C18.1059 10.0587 12.0228 16.0581 12.0228 23.4587C12.0228 30.8593 18.1059 36.8587 25.6099 36.8587C28.9729 36.8587 32.0506 35.6537 34.4232 33.6576C36.7958 35.6536 39.8734 36.8586 43.2364 36.8586Z" fill="#ED0006"/>
    <path fill-rule="evenodd" clip-rule="evenodd" d="M34.4231 33.6575C37.3445 31.1997 39.197 27.5425 39.197 23.4586C39.197 19.3747 37.3445 15.7175 34.4231 13.2597C36.7957 11.2636 39.8734 10.0586 43.2364 10.0586C50.7403 10.0586 56.8235 16.058 56.8235 23.4586C56.8235 30.8592 50.7403 36.8586 43.2364 36.8586C39.8734 36.8586 36.7957 35.6536 34.4231 33.6575Z" fill="#F9A000"/>
    <path fill-rule="evenodd" clip-rule="evenodd" d="M34.4232 33.6575C37.3445 31.1997 39.1969 27.5425 39.1969 23.4586C39.1969 19.3748 37.3445 15.7176 34.4232 13.2598C31.5018 15.7176 29.6494 19.3748 29.6494 23.4586C29.6494 27.5425 31.5018 31.1997 34.4232 33.6575Z" fill="#FF5E00"/>
</svg>
