<svg xmlns="http://www.w3.org/2000/svg" width="37" height="36" viewBox="0 0 37 36" fill="none">
<path fill-rule="evenodd" clip-rule="evenodd" d="M5.31384 12.75C5.31384 11.9216 5.98542 11.25 6.81384 11.25L30.8138 11.25C31.6423 11.25 32.3138 11.9216 32.3138 12.75C32.3138 13.5784 31.6423 14.25 30.8138 14.25L6.81384 14.25C5.98542 14.25 5.31384 13.5784 5.31384 12.75Z" fill="white"/>
<path fill-rule="evenodd" clip-rule="evenodd" d="M5.31384 23.25C5.31384 22.4216 5.98542 21.75 6.81384 21.75L30.8138 21.75C31.6423 21.75 32.3138 22.4216 32.3138 23.25C32.3138 24.0784 31.6423 24.75 30.8138 24.75L6.81384 24.75C5.98542 24.75 5.31384 24.0784 5.31384 23.25Z" fill="white"/>
</svg>