<svg width="37" height="36" viewBox="0 0 37 36" fill="none" xmlns="http://www.w3.org/2000/svg">
<path fill-rule="evenodd" clip-rule="evenodd" d="M4.68164 12.75C4.68164 11.9216 5.35321 11.25 6.18164 11.25L30.1816 11.25C31.0101 11.25 31.6816 11.9216 31.6816 12.75C31.6816 13.5784 31.0101 14.25 30.1816 14.25L6.18164 14.25C5.35321 14.25 4.68164 13.5784 4.68164 12.75Z" fill="#181818"/>
<path fill-rule="evenodd" clip-rule="evenodd" d="M4.68164 23.25C4.68164 22.4216 5.35321 21.75 6.18164 21.75L30.1816 21.75C31.0101 21.75 31.6816 22.4216 31.6816 23.25C31.6816 24.0784 31.0101 24.75 30.1816 24.75L6.18164 24.75C5.35321 24.75 4.68164 24.0784 4.68164 23.25Z" fill="#181818"/>
</svg>
