<svg width="1420" height="524" viewBox="0 0 1420 524" fill="none" xmlns="http://www.w3.org/2000/svg">
<line x1="30.4277" y1="300.5" x2="1298.28" y2="300.5" stroke="#696969" stroke-opacity="0.09"/>
<line x1="30.4277" y1="100.5" x2="1298.28" y2="100.5" stroke="#696969" stroke-opacity="0.09"/>
<line x1="1129.74" y1="2.14539e-08" x2="1129.74" y2="478" stroke="#696969" stroke-opacity="0.09"/>
<line x1="960.69" y1="2.14539e-08" x2="960.69" y2="478" stroke="#696969" stroke-opacity="0.09"/>
<line x1="791.641" y1="2.14539e-08" x2="791.641" y2="478" stroke="#696969" stroke-opacity="0.09"/>
<line x1="622.594" y1="2.14539e-08" x2="622.594" y2="478" stroke="#696969" stroke-opacity="0.09"/>
<line x1="453.547" y1="2.14539e-08" x2="453.547" y2="478" stroke="#696969" stroke-opacity="0.09"/>
<line x1="284.5" y1="2.14539e-08" x2="284.5" y2="478" stroke="#696969" stroke-opacity="0.09"/>
<line x1="30.4277" y1="400.5" x2="1298.28" y2="400.5" stroke="#696969" stroke-opacity="0.09"/>
<line x1="30.4277" y1="200.5" x2="1298.28" y2="200.5" stroke="#696969" stroke-opacity="0.09"/>
<line x1="1045.21" y1="2.14539e-08" x2="1045.21" y2="478" stroke="#696969" stroke-opacity="0.09"/>
<line x1="876.166" y1="2.14539e-08" x2="876.166" y2="478" stroke="#696969" stroke-opacity="0.09"/>
<line x1="707.119" y1="2.14539e-08" x2="707.119" y2="478" stroke="#696969" stroke-opacity="0.09"/>
<line x1="538.07" y1="2.14539e-08" x2="538.07" y2="478" stroke="#696969" stroke-opacity="0.09"/>
<line x1="369.023" y1="2.14539e-08" x2="369.023" y2="478" stroke="#696969" stroke-opacity="0.09"/>
<line x1="199.975" y1="2.14539e-08" x2="199.975" y2="478" stroke="#696969" stroke-opacity="0.09"/>
</svg>
