<svg width="69" height="48" viewBox="0 0 69 48" fill="none" xmlns="http://www.w3.org/2000/svg">
    <rect x="1.06452" y="0.774194" width="66.5807" height="46.4516" rx="5.41935" fill="white"/>
    <rect x="1.06452" y="0.774194" width="66.5807" height="46.4516" rx="5.41935" stroke="#F2F4F7" stroke-width="1.54839"/>
    <path fill-rule="evenodd" clip-rule="evenodd" d="M21.8316 31.7167H17.7043L14.6094 19.585C14.4625 19.0269 14.1505 18.5336 13.6917 18.301C12.5467 17.7167 11.285 17.2516 9.90854 17.0171V16.55H16.5573C17.4749 16.55 18.1631 17.2516 18.2778 18.0665L19.8837 26.8175L24.009 16.55H28.0216L21.8316 31.7167ZM30.3156 31.7167H26.4178L29.6274 16.55H33.5253L30.3156 31.7167ZM38.5682 20.7506C38.6829 19.9338 39.3711 19.4667 40.1741 19.4667C41.4358 19.3494 42.8102 19.584 43.9573 20.1663L44.6455 16.9008C43.4984 16.4338 42.2367 16.1992 41.0917 16.1992C37.3085 16.1992 34.5556 18.3 34.5556 21.2157C34.5556 23.4338 36.5056 24.5984 37.882 25.3001C39.3711 25.9996 39.9447 26.4667 39.83 27.1663C39.83 28.2157 38.6829 28.6828 37.5379 28.6828C36.1615 28.6828 34.785 28.333 33.5253 27.7486L32.8371 31.0161C34.2135 31.5985 35.7027 31.833 37.0791 31.833C41.3211 31.9482 43.9573 29.8495 43.9573 26.6992C43.9573 22.7322 38.5682 22.4996 38.5682 20.7506ZM57.5989 31.7167L54.5039 16.55H51.1795C50.4913 16.55 49.8031 17.0171 49.5737 17.7167L43.8425 31.7167H47.8551L48.656 29.5007H53.5863L54.0451 31.7167H57.5989ZM51.753 20.6327L52.898 26.3488H49.6884L51.753 20.6327Z" fill="#172B85"/>
</svg>
